{"title":"The Town 2010 DVDrip English Klam","uid":6662675,"size":1883469797,"categoryP":"video","categoryS":"movies","magnet":"?xt=urn:btih:b8042ae6da00fbd6e507c7a182dfa4ae23649ded&amp;dn=The+Town+2010+DVDrip+English+Klam&amp;tr=udp%3A%2F%2Ftracker.openbittorrent.com%3A80&amp;tr=udp%3A%2F%2Fopen.demonii.com%3A1337&amp;tr=udp%3A%2F%2Ftracker.coppersurfer.tk%3A6969&amp;tr=udp%3A%2F%2Fexodus.desync.com%3A6969","seeders":0,"leechers":0,"uploader":"Klambake","files":-1,"time":1315528179,"description":"With: Ben Affleck, Rebecca Hall and Jeremy Renner\n\nElk jaar worden in Boston meer dan 300 bankovervallen gepleegd. En de meeste daders wonen in Charlestown, een buurt met een oppervlakte van 1,5 vierkante kilometer. EÃƒÂ©n van hen is Doug MacCray (Ben Affleck). Hij heeft wel kans op succes gehad, een kans om niet in de criminele voetsporen van zijn vader te treden. Toch werd hij lid van een bende meedogenloze bankovervallers die er trots op is dat ze alles kunnen stelen wat ze willen en er zonder kleerscheuren vanaf komen. De enige familie die Doug heeft zijn zijn criminele vrienden. Jem (Jeremy Renner) is ondanks zijn gevaarlijke en snel ontvlambare karakter als een broer voor Doug. Alles verandert echter tijdens een klus van de bende, wanneer Jem voor korte tijd een gijzelaar neemt: bankmanager Claire Keesey (Rebecca Hall). Wanneer ze ontdekken dat ze in Charlestown woont, wordt Jem nerveus en wil hij erachter komen wat ze heeft gezien.\n\nAs he plans his next job, a longtime thief tries to balance his feelings for a bank manager connected to one of his earlier heists, as well as the FBI agent looking to bring him and his crew down. \n\n------------------ Dutch Friends ------------------\nYou can find my Friends at: http://www.Film-Test.nl \n------ They got my dutchs subs ---- and more ------\n\nGeneral:\n\nComplete name                    : The Town\\The Town.avi\nFormat                           : AVI\nFormat/Info                      : Audio Video Interleave\nFile size                        : 1.75 GiB\nDuration                         : 1h 59mn\nOverall bit rate                 : 2 099 Kbps\n\nVideo:\n\nFormat                           : MPEG-4 Visual\nFormat profile                   : Simple@L3\nFormat settings, BVOP            : No\nFormat settings, QPel            : No\nFormat settings, GMC             : No warppoints\nFormat settings, Matrix          : Default (H.263)\nCodec ID                         : XVID\nCodec ID/Hint                    : XviD\nDuration                         : 1h 59mn\nBit rate                         : 1 704 Kbps\nWidth                            : 720 pixels\nHeight                           : 304 pixels\nDisplay aspect ratio             : 2.35:1\nFrame rate                       : 25.000 fps\nColor space                      : YUV\nChroma subsampling               : 4:2:0\nBit depth                        : 8 bits\nScan type                        : Progressive\nBits/(Pixel*Frame)               : 0.311\nStream size                      : 1.42 GiB (81%)\nWriting library                  : XviD 1.1.2 (UTC 2006-11-01)\n\nAudio:\n\nFormat                           : AC-3\nFormat/Info                      : Audio Coding 3\nMode extension                   : CM (complete main)\nCodec ID                         : 2000\nDuration                         : 1h 59mn\nBit rate mode                    : Constant\nBit rate                         : 384 Kbps\nChannel(s)                       : 6 channels\nChannel positions                : Front: L C R, Side: L R, LFE\nSampling rate                    : 48.0 KHz\nBit depth                        : 16 bits\nStream size                      : 329 MiB (18%)\nAlignment                        : Aligned on interleaves\nInterleave, duration             : 32 ms (0.80 video frame)\n","torrent":{"xt":"urn:btih:b8042ae6da00fbd6e507c7a182dfa4ae23649ded","amp;dn":"The+Town+2010+DVDrip+English+Klam","amp;tr":["udp%3A%2F%2Ftracker.openbittorrent.com%3A80","udp%3A%2F%2Fopen.demonii.com%3A1337","udp%3A%2F%2Ftracker.coppersurfer.tk%3A6969","udp%3A%2F%2Fexodus.desync.com%3A6969"],"infoHash":"b8042ae6da00fbd6e507c7a182dfa4ae23649ded","infoHashBuffer":{"type":"Buffer","data":[184,4,42,230,218,0,251,214,229,7,199,161,130,223,164,174,35,100,157,237]},"announce":[],"urlList":[]}}